<?xml version="1.0" standalone="no"?>
<!DOCTYPE svg PUBLIC "-//W3C//DTD SVG 20010904//EN"
 "http://www.w3.org/TR/2001/REC-SVG-20010904/DTD/svg10.dtd">
<svg version="1.0" xmlns="http://www.w3.org/2000/svg"
 width="100.000000pt" height="100.000000pt" viewBox="0 0 100.000000 100.000000"
 preserveAspectRatio="xMidYMid meet">
<metadata>
Created by potrace 1.14, written by Peter Selinger 2001-2017
</metadata>
<g transform="translate(0.000000,100.000000) scale(0.100000,-0.100000)"
fill="#000000" stroke="none">
<path d="M40 880 c0 -16 7 -20 30 -20 23 0 30 -4 30 -20 0 -16 -7 -20 -30 -20
-23 0 -30 -4 -30 -20 0 -16 7 -20 30 -20 23 0 30 -4 30 -20 0 -16 -7 -20 -30
-20 -23 0 -30 -4 -30 -20 0 -16 7 -20 30 -20 23 0 30 -4 30 -20 0 -16 -7 -20
-30 -20 -23 0 -30 -4 -30 -20 0 -16 7 -20 30 -20 23 0 30 -4 30 -20 0 -16 -7
-20 -30 -20 -23 0 -30 -4 -30 -20 0 -17 7 -20 50 -20 l50 0 0 180 0 180 -50 0
c-43 0 -50 -3 -50 -20z"/>
<path d="M160 880 c0 -20 7 -20 340 -20 333 0 340 0 340 -20 0 -20 -7 -20
-340 -20 -333 0 -340 0 -340 -20 0 -20 7 -20 340 -20 333 0 340 0 340 -20 0
-20 -7 -20 -340 -20 -333 0 -340 0 -340 -20 0 -20 7 -20 340 -20 333 0 340 0
340 -20 0 -20 -7 -20 -340 -20 -333 0 -340 0 -340 -20 0 -20 7 -20 340 -20
333 0 340 0 340 -20 0 -20 -7 -20 -340 -20 -333 0 -340 0 -340 -20 0 -20 7
-20 360 -20 l360 0 0 180 0 180 -360 0 c-353 0 -360 0 -360 -20z"/>
<path d="M900 880 c0 -16 7 -20 30 -20 23 0 30 4 30 20 0 16 -7 20 -30 20 -23
0 -30 -4 -30 -20z"/>
<path d="M900 800 c0 -16 7 -20 30 -20 23 0 30 4 30 20 0 16 -7 20 -30 20 -23
0 -30 -4 -30 -20z"/>
<path d="M900 720 c0 -16 7 -20 30 -20 23 0 30 4 30 20 0 16 -7 20 -30 20 -23
0 -30 -4 -30 -20z"/>
<path d="M900 640 c0 -16 7 -20 30 -20 23 0 30 4 30 20 0 16 -7 20 -30 20 -23
0 -30 -4 -30 -20z"/>
<path d="M900 560 c0 -16 7 -20 30 -20 23 0 30 4 30 20 0 16 -7 20 -30 20 -23
0 -30 -4 -30 -20z"/>
<path d="M165 487 c-3 -7 -4 -100 -3 -207 l3 -195 335 0 335 0 0 205 0 205
-333 3 c-265 2 -334 0 -337 -11z m374 -72 c5 -27 20 -35 45 -25 16 6 25 2 38
-19 17 -24 16 -26 -3 -47 -19 -21 -19 -21 0 -45 18 -24 19 -26 1 -48 -12 -16
-24 -22 -38 -19 -22 6 -46 -5 -48 -22 -1 -5 -2 -14 -3 -19 0 -5 -15 -9 -31 -9
-23 1 -32 7 -36 24 -7 27 -29 37 -53 24 -15 -7 -21 -3 -34 26 -9 18 -12 34 -7
34 5 0 14 9 20 20 8 16 7 23 -8 36 -18 15 -18 19 -5 45 16 33 17 33 44 19 16
-9 22 -6 36 19 14 23 24 29 48 28 21 -2 31 -8 34 -22z"/>
<path d="M468 315 c-17 -37 10 -64 47 -47 27 12 33 40 13 60 -20 20 -48 14
-60 -13z"/>
<path d="M904 489 c-10 -17 13 -36 27 -22 12 12 4 33 -11 33 -5 0 -12 -5 -16
-11z"/>
<path d="M904 429 c-10 -17 13 -36 27 -22 12 12 4 33 -11 33 -5 0 -12 -5 -16
-11z"/>
<path d="M904 369 c-10 -17 13 -36 27 -22 12 12 4 33 -11 33 -5 0 -12 -5 -16
-11z"/>
<path d="M904 309 c-10 -17 13 -36 27 -22 12 12 4 33 -11 33 -5 0 -12 -5 -16
-11z"/>
<path d="M904 249 c-10 -17 13 -36 27 -22 12 12 4 33 -11 33 -5 0 -12 -5 -16
-11z"/>
<path d="M892 188 c-20 -20 -14 -48 13 -60 45 -20 79 38 36 62 -25 13 -34 13
-49 -2z"/>
</g>
</svg>
